<?xml version="1.0" encoding="utf-8"?>
<!-- Generator: Adobe Illustrator 24.0.0, SVG Export Plug-In . SVG Version: 6.00 Build 0)  -->
<svg version="1.1" id="Слой_1" xmlns="http://www.w3.org/2000/svg" xmlns:xlink="http://www.w3.org/1999/xlink" x="0px" y="0px"
	 viewBox="0 0 511 511" style="enable-background:new 0 0 511 511;" xml:space="preserve">
<style type="text/css">
	.st0{fill:#FFFFFF;}
</style>
<path class="st0" d="M65.9,326.7c0-6.5,1.3-13.1,3.9-19.3c7.8-18.8,25.9-30.9,46.1-30.9h42.9c11,0,20,8.9,20,20s-8.9,20-20,20h-42.9
	c-6,0-8.4,4.4-9.2,6.3c-0.8,1.9-2.2,6.9,2.1,11.2l132.6,132.4c7.8,7.8,20.5,7.8,28.3,0l132.6-132.4c4.3-4.3,2.9-9.2,2.1-11.2
	c-0.8-1.9-3.2-6.3-9.2-6.3H274.5c-22,0-39.9-17.9-39.9-39.9V20.9c0-11,8.9-20,20-20c11,0,20,8.9,20,20v255.5h120.7
	c20.2,0,38.3,12.1,46.1,30.9c7.8,18.9,3.6,40.3-10.8,54.7L297.9,494.5c-23.4,23.3-61.4,23.3-84.8,0L80.6,362.1
	C71,352.5,65.9,339.8,65.9,326.7z"/>
</svg>
